<svg id="Layer_1" data-name="Layer 1" xmlns="http://www.w3.org/2000/svg" viewBox="0 0 3328.8 381.1"><defs><style>.cls-1{fill:#8ecaee;}.cls-2{fill:#3e7595;}.cls-3{fill:#3f7595;}.cls-4{fill:#8dc9ed;}.cls-5{fill:#3f7696;}.cls-6{fill:#407696;}</style></defs><title>happy_ocean_logo</title><path class="cls-1" d="M655.8,97.3c8.1,1.3,16.3,2.3,24.3,4,26.7,5.7,50.7,17,71.3,35,28.3,24.8,44,56.6,52.3,92.7l.9,4.3c-14.9,3.9-29.8,8-44.9,11.5-21.2,4.8-42.5,9.2-63.7,13.7-3.8-11.8-6.4-24.1-11.6-35.2-8.9-19.3-25.1-29.6-46.4-29.7s-35.8,9.3-46,27.2c-7.2,12.6-10.4,26.4-13,40.4-37.5-5.1-72.4-18.5-106.3-34.9,2.8-16.1,8.9-31,16.4-45.4l.7-.7h-.1a41,41,0,0,0,5-.2,148.8,148.8,0,0,1,67.9,5,48,48,0,0,0,6.6,1.2c1.9-5.7-1.2-8.6-4.8-11.3-16.7-12.2-35.6-18.9-55.7-22.9,15.9-20,36.5-33.6,60.1-42.9a156.3,156.3,0,0,1,47.7-11,10.9,10.9,0,0,0,2.3-.9Z" transform="translate(1254.1 -97.3)"/><path class="cls-1" d="M840.8,223.3a174,174,0,0,1,38.4-69.1c24.2-26.8,54.2-44,89.3-52.2,7.7-1.8,15.6-2.6,23.5-3.8l2.7-.9h32c7.7,1.6,15.5,2.9,23.2,4.9,24.5,6.4,46.1,18.3,65.1,34.9,4.4,3.8,8.7,7.8,12.7,11.9.9,1,1.3,3.9.6,4.8-6.3,7.3-12.8,14.4-19.3,21.5a48.7,48.7,0,0,0-5.4-.2c-18.6,1.3-37.3,1.8-55.7,4.3-30.3,4.1-60.7,8.4-90.5,14.9C918.3,202.8,879.6,213.5,840.8,223.3Z" transform="translate(1254.1 -97.3)"/><path class="cls-2" d="M-946.3,209.5V429l-23.1,9.2-82.6,34h-4V332.6h-88.4V471.8h-109.5c-.1-1.5-.2-3.2-.2-4.8V207.6c0-1.7.2-3.3.3-5,19.3-1.1,38.7-2.5,58-3.4,16.9-.8,33.8-1.2,50.7-1.7v36.6h89.2V199.5c19.3,1.3,38.5,2.3,57.7,4C-980.9,205.1-963.6,207.5-946.3,209.5Z" transform="translate(1254.1 -97.3)"/><path class="cls-1" d="M-572,267.3V193.2c6.9-3.3,13.6-7.2,20.7-9.7,29.1-10.4,58.5-10.7,88.3-2.8,3.7.9,7.6,1.3,11.4,1.9,1.7-7.5-3.4-10.2-7.4-13-12.2-8.7-25.7-14.5-40.2-18.3-23.9-6.2-48.3-6.4-72.8-5.9V103.3h5.7c48.6,0,97.2-.4,145.9.2,27.1.3,53.9,4.3,78.9,16.2,33,15.7,53.1,41.7,60.4,77.5a162.4,162.4,0,0,1-.1,62.9c-.2,1.1-.7,2.2-1,3.3l-46.7,14.3c-35,10.6-70.6,17.6-107.4,16.6-8.3-.2-16.6-.2-24.9-1.1-19.1-2.2-38.2-4.5-57.2-7.7S-554.9,275.6-572,267.3Zm109.8,3.1c16.9-.9,33.2,1.8,49.3-2.4,11.3-2.9,20.3-9.2,23.8-20.6,2.2-6.8,2.8-14.3,2.9-21.5.2-16.1-7.8-25.9-23.3-29.7s-33.1-2.5-49.7-2.8c-3.5-.1-2.9,2.4-3,4.5v72.5Z" transform="translate(1254.1 -97.3)"/><path class="cls-2" d="M160.9,157.2l18.9,54.6c3.2,9.2,6.4,18.4,10,29,2.7-7.3,4.9-13.1,6.9-19l21-59.2c.6-1.5,1.3-3,2-4.5l11.4,1.1c18.2,2.2,36.5,4.1,54.8,6.7,12.3,1.7,24.4,4.4,36.6,6.6-2.4,5.9-4.7,11.9-7.4,17.7-22.9,50-46,99.9-68.8,149.9a26.3,26.3,0,0,0-2.1,9.6c-.1,22.1,0,44.2-.1,66.4,0,2-.2,4-.3,5.9-16.7-.5-33.3-.6-49.9-1.9-20.9-1.7-40.9-7-59.2-17.8-.1-15.6-.4-31.3-.1-46.9.1-7.2-.7-13.8-4.4-20.1a28.2,28.2,0,0,1-1.9-5.1l2.1-1.2c28.6-18,59.7-24.1,93-19.9,8,1,16,1.8,24.5,2.7-.2-6.3-4.1-8.6-7.7-10.7-25.2-15-53.1-19.6-81.8-19.2-16.9.2-33.7,2.8-50.6,4.4L67.9,199.9c-4.9-10.6-9.7-21.4-14.6-32.1l6.5-.8A779.2,779.2,0,0,1,160.9,157.2Z" transform="translate(1254.1 -97.3)"/><path class="cls-2" d="M-676.9,169.1c5.1,16.5,10.4,32.9,15.4,49.3q18.4,60.4,36.8,120.9a24.9,24.9,0,0,1-4.5,1.8c-34.7,7-69.5,13-104,20.9-62.6,14.3-123.6,34-183.9,56.2,4.7-15.7,9.3-31.5,14-47.2q22.1-72.7,44.2-145.3l.9-2.3c19.3,4.1,38.6,7.8,57.8,12.5,8.7,2.1,15.7,1.1,22.4-5.1,4.8-4.4,10.5-7.8,15.9-11.7-6.7,29.7-13.3,59.5-20,89.4H-739c-4.3-18-8.6-35.6-12.6-53.2-3-12.9-5.6-25.9-8.4-38.9C-733.9,197.8-706.5,181.6-676.9,169.1Z" transform="translate(1254.1 -97.3)"/><path class="cls-2" d="M30.1,171.9c3.1,9.8,7.3,19.3,9.1,29.3,4.7,26.6,3.3,53.1-6.6,78.6-13.4,34.6-39.2,56.6-73.3,69.5-22.3,8.4-45.4,11.3-69.1,11.3h-26c-6.8,0-6.8,0-7.1,7-15.6-4.9-31-10.3-46.7-14.5-20.6-5.5-41.6-10.1-62.4-15.2-.1-15.5-.2-31.1-.2-46.7,0-12.6.1-25.2.2-37.8l33.6-10.6,75.5-23.9.2,50.3.5.8c14.3-.2,28.7.3,42.9-.9,17-1.4,27.8-10.8,31.4-26.1s3.7-33.4-12.6-43.7l5.2-1.8Z" transform="translate(1254.1 -97.3)"/><path class="cls-1" d="M803.6,344.2c-6.4,29.5-18.5,56.5-38.2,79.6-21.6,25.3-49,41.3-81.3,49.5-19.9,5-40.1,5.3-60.3,5-33-2.5-63.5-12-90.1-32.2-23.7-17.9-40.2-41.2-51.6-68.4a14.5,14.5,0,0,1-.4-2.9c17.1-4.1,34.1-8.6,51.3-12.1,19.2-4,38.7-7,58.1-10.5.8,1.2,1.8,2.4,2.5,3.7,12.6,20.9,34.3,30.4,57.4,24.2,19.1-5.2,29.9-19.3,36.9-36.9.6.3,1.1.8,1.7.8,8.6-.2,17.2-.7,25.8-.7C744.8,343.5,774.2,343.9,803.6,344.2Z" transform="translate(1254.1 -97.3)"/><path class="cls-1" d="M30.1,171.9-75.3,197.5l-5.2,1.8c-3.1-1-6.2-2.3-9.4-3.1-16.5-4-33.3-2.6-50-2.6-1,0-2.9,2.5-3,3.8-.3,7.2-.1,14.3,0,21.5l-75.5,23.9L-252,253.4q-.1-73.6-.2-147.4a20.1,20.1,0,0,1,.4-2.5l5.3-.2c48.8,0,97.6-.5,146.4.2,30,.5,59.5,5.3,86.3,20.4C4.7,134.3,19,148.7,28.5,167.7A30.3,30.3,0,0,1,30.1,171.9Z" transform="translate(1254.1 -97.3)"/><path class="cls-1" d="M-917.1,418.2c60.3-22.2,121.3-41.9,183.9-56.2,34.5-7.9,69.3-13.9,104-20.9a24.9,24.9,0,0,0,4.5-1.8c13.5,44.1,26.9,88.2,40.5,132.7H-700.7c-3.1-13.1-6.2-26.1-9.2-39.2-2.5-10.6-4.9-21.3-7.2-32-.7-3.3-2.8-3.6-5.5-3.5h-67c-4.4,0-10-1.1-13,1.1s-2.6,7.8-3.6,11.9c-4.8,20.4-9.5,40.7-14.4,61.5H-933.7c1.6-5.3,3.1-10.5,4.7-15.7C-925.1,443.4-921,430.8-917.1,418.2Z" transform="translate(1254.1 -97.3)"/><path class="cls-1" d="M-323.1,328.1c-10,9-21.8,15.1-34.2,20-23,9.2-47,12.6-71.7,12.3-10.8-.2-21.6,0-33,0V471.9H-571.6a22.3,22.3,0,0,1-.4-2.3V333.1h3c22.4-1.8,44.7-4.2,67-5.5s43.9-1.9,65.8-2c31.1-.1,62.2.5,93.3.9C-336.3,326.5-329.7,327.6-323.1,328.1Z" transform="translate(1254.1 -97.3)"/><path class="cls-1" d="M-761.9,219.1c-5.4,3.9-11.1,7.3-15.9,11.7-6.7,6.2-13.7,7.2-22.4,5.1-19.2-4.7-38.5-8.4-57.8-12.5l18-59.6c5.7-18.9,11.5-37.7,17.1-56.7.8-2.7,2-3.9,5.2-3.9,39.1.1,78.2,0,117.3.2,1.6,0,4.2,1.5,4.6,2.9,6.4,20.2,12.5,40.5,18.7,60.9a12.3,12.3,0,0,1,.2,1.9c-29.6,12.5-57,28.7-83.1,47.3Z" transform="translate(1254.1 -97.3)"/><path class="cls-1" d="M-252,337.9c20.8,5.1,41.8,9.7,62.4,15.2,15.7,4.2,31.1,9.6,46.7,14.5V471.8H-251.8a20.9,20.9,0,0,1-.4-3.5V340.9C-252.2,339.9-252,338.9-252,337.9Z" transform="translate(1254.1 -97.3)"/><path class="cls-2" d="M591.1,352.2c-19.4,3.5-38.9,6.5-58.1,10.5-17.2,3.5-34.2,8-51.3,12.1-3.2-9.9-7.3-19.6-9.6-29.7a273.6,273.6,0,0,1-.2-117.1,6.5,6.5,0,0,1,.8-1.7c33.9,16.4,68.8,29.8,106.3,34.9-1.7,19.7-2.5,39.5,2,58.9C583.4,331,587.7,341.5,591.1,352.2Z" transform="translate(1254.1 -97.3)"/><path class="cls-3" d="M-323.1,328.1c-6.6-.5-13.2-1.6-19.8-1.7-31.1-.4-62.2-1-93.3-.9-21.9.1-43.9.7-65.8,2s-44.6,3.7-67,5.5h-3V267.3c17.1,8.3,34.9,15,53.6,18.2s38.1,5.5,57.2,7.7c8.3.9,16.6.9,24.9,1.1,36.8,1,72.4-6,107.4-16.6l46.7-14.3C-288.3,289.7-301.3,311.7-323.1,328.1Z" transform="translate(1254.1 -97.3)"/><path class="cls-1" d="M-946.3,209.5c-17.3-2-34.6-4.4-51.9-6-19.2-1.7-38.4-2.7-57.7-4V103.7h109.2a4.8,4.8,0,0,1,.5,1.4Q-946.2,157.3-946.3,209.5Z" transform="translate(1254.1 -97.3)"/><path class="cls-1" d="M-1145.1,197.5c-16.9.5-33.8.9-50.7,1.7-19.3.9-38.7,2.3-58,3.4-.1-28.1-.2-56.3-.2-84.4-.1-4.7-.1-9.4-.1-14.5h109Z" transform="translate(1254.1 -97.3)"/><path class="cls-1" d="M322.5,172.5c-12.2-2.2-24.3-4.9-36.6-6.6-18.3-2.6-36.6-4.5-54.8-6.7l-11.4-1.1c5.3-15.5,10.7-31,16-46.6a20.8,20.8,0,0,0,1.2-3.2c.7-4,2.9-5.2,7-5.1,30.9.2,61.8.1,92.8.1H355l-4,8.9-26.4,57.5A14.6,14.6,0,0,1,322.5,172.5Z" transform="translate(1254.1 -97.3)"/><path class="cls-1" d="M160.9,157.2A779.2,779.2,0,0,0,59.8,167l-6.5.8-26.4-57c-1.1-2.2-1.9-4.5-3.1-7.3l5.3-.2H136.9c4.1,0,5.9,1.3,7.1,5.1C149.5,124.7,155.2,140.9,160.9,157.2Z" transform="translate(1254.1 -97.3)"/><path class="cls-1" d="M134.7,402.3c18.3,10.8,38.3,16.1,59.2,17.8,16.6,1.3,33.2,1.4,49.9,1.9v49.8H134.7Z" transform="translate(1254.1 -97.3)"/><path class="cls-4" d="M107.8,286.3c16.9-1.6,33.7-4.2,50.6-4.4,28.7-.4,56.6,4.2,81.8,19.2,3.6,2.1,7.5,4.4,7.7,10.7-8.5-.9-16.5-1.7-24.5-2.7-33.3-4.2-64.4,1.9-93,19.9l-2.1,1.2c-4.8-10.1-9.7-20.2-14.4-30.4C111.8,295.3,109.8,290.8,107.8,286.3Z" transform="translate(1254.1 -97.3)"/><path class="cls-3" d="M-572,145.4c24.5-.5,48.9-.3,72.8,5.9,14.5,3.8,28,9.6,40.2,18.3,4,2.8,9.1,5.5,7.4,13-3.8-.6-7.7-1-11.4-1.9-29.8-7.9-59.2-7.6-88.3,2.8-7.1,2.5-13.8,6.4-20.7,9.7Z" transform="translate(1254.1 -97.3)"/><path class="cls-1" d="M-1052,472.2l82.6-34,23.1-9.2v43.2Z" transform="translate(1254.1 -97.3)"/><path class="cls-5" d="M508.7,152.1c20.1,4,39,10.7,55.7,22.9,3.6,2.7,6.7,5.6,4.8,11.3a48,48,0,0,1-6.6-1.2,148.8,148.8,0,0,0-67.9-5,41,41,0,0,1-5,.2Z" transform="translate(1254.1 -97.3)"/><path class="cls-5" d="M489.8,180.2l-.7.7A4.6,4.6,0,0,0,489.8,180.2Z" transform="translate(1254.1 -97.3)"/><path class="cls-2" d="M1153.7,432.2c-.1-1.6-.3-3.3-.3-4.9V181.2c0-1.6.2-3.3.3-4.9l99.8,15.4c10.5,1.6,20.9,4.3,31.6,1.6,6.4-1.6,12.9-3.1,19.4-4.5,22.7-4.8,45.6-7.4,68.8-6.3,8.1.4,16.1,1.9,24.1,3V198H1263v27.9c0,11,0,11,10.9,11h103.6v94.2h-114v46.2h139V383l-40.6,24.4c-22.9,13.5-45.1,28.2-69.9,38.3-30.2,12.2-60.6,15.8-91.7,4.1Z" transform="translate(1254.1 -97.3)"/><path class="cls-2" d="M1772.6,395.2c-.1-1.3-.3-2.6-.3-3.9V176c0-1,.1-2,.2-3h32.1l7,.2,8,.8,5,.2,4.8.5,5.2.6,2.9.3,5.1.7,2.8.4,4.2.7h.9l5.1.9,19.9,4.2,3.1.8,7.9,2.1,4,1.2,4.1,1.4,12,4,21,8.2h.9l1,1c15.2,30.8,30.3,61.7,44.5,90.7-1.4-21.1-2.9-44.5-4.4-67.8a24.3,24.3,0,0,1,4,1.8c24.3,16.4,45.7,36,64.9,58.1l35.9,41.5a7.1,7.1,0,0,0,.1,1.4l-11.4,1.1a761.1,761.1,0,0,0-100.9,14.3c-18,3.8-35.8,8.5-53.7,12.8l-30.9-64.3c-1.7-3.5-3.3-7.1-5-10.6-.1-.4-.3-.7,0-.1s-.3-.1.1,0c.8,10.2,1.8,20.4,2.4,30.6.9,17.7,1.6,35.4,2.3,53.1l-5.3,1.3Z" transform="translate(1254.1 -97.3)"/><path class="cls-3" d="M1634.8,434.2c-2.8-12.1-5.5-24.2-8.4-36.9h-64.9c.4-8.5,4.6-15.2,9.9-21.3,8.8-10.2,20.2-16.8,32.5-21.7,30.1-11.9,60.7-11.6,91.7-3.6,3.4.9,7,1.3,10.5,1.9l1.1-1.3c-.8-1.9-1.2-4.4-2.7-5.5-6.6-5-13.1-10.4-20.4-14.2-16.7-8.6-34.8-13.1-53.6-14.5-28-2.1-55.8-1.9-83.6,2.9-22.3,3.8-43.3,11.8-64.1,20.3-12.6,5.1-24.7,11.3-37.1,17l39-128.1,2.3-.8c31.8-7.7,63.5-15.6,95.3-23.1,30-7.1,60.1-13.9,90.2-20.9L1718.7,336c7,23,13.9,46.1,20.8,69.1l-79.3,22.7C1651.8,430.2,1643.3,432.1,1634.8,434.2ZM1584,217.4h-.8l-21,91h43.1C1598.1,277.9,1591.1,247.6,1584,217.4Z" transform="translate(1254.1 -97.3)"/><path class="cls-1" d="M996.7,478.4c-32.9-2.1-63.7-10.9-91.2-29.4S858,405.2,846,374.2c-3.5-9.1-5.6-18.7-8.4-28,11,.6,22,.9,32.8,2.1,21.5,2.2,43,4.8,64.4,7.5,9.5,1.1,19,2.9,28.5,4.4,9.2,10.6,20.4,17.7,34.2,20.5,12,2.4,23.7,1.2,35.2-2.3a9.1,9.1,0,0,0,2.3,1.7c33.2,11,64.6,26,95.9,41.5-9.9,13.2-22.3,23.6-36,32.4a145.1,145.1,0,0,1-61.4,22.9C1021.3,478.4,1009,478,996.7,478.4Z" transform="translate(1254.1 -97.3)"/><path class="cls-1" d="M1445.7,357.3c12.4-5.7,24.5-11.9,37.1-17,20.8-8.5,41.8-16.5,64.1-20.3,27.8-4.8,55.6-5,83.6-2.9,18.8,1.4,36.9,5.9,53.6,14.5,7.3,3.8,13.8,9.2,20.4,14.2,1.5,1.1,1.9,3.6,2.7,5.5l-1.1,1.3c-3.5-.6-7.1-1-10.5-1.9-31-8-61.6-8.3-91.7,3.6-12.3,4.9-23.7,11.5-32.5,21.7-5.3,6.1-9.5,12.8-9.9,21.3-5.3,0-10.7.4-15.9-.1s-5,1.9-5.7,5c-5.1,22-10.2,43.9-15.2,65.9-.6,3-1.8,4.2-4.9,4.2H1413.3l-2.6-.3c1.6-5.4,3-10.6,4.6-15.7L1445,358C1445.1,357.7,1445.5,357.5,1445.7,357.3Z" transform="translate(1254.1 -97.3)"/><path class="cls-1" d="M1397.4,185.5c-8-1.1-16-2.6-24.1-3-23.2-1.1-46.1,1.5-68.8,6.3-6.5,1.4-13,2.9-19.4,4.5-10.7,2.7-21.1,0-31.6-1.6l-99.8-15.4V103.6h243.7Z" transform="translate(1254.1 -97.3)"/><path class="cls-3" d="M963.3,360.2c-9.5-1.5-19-3.3-28.5-4.4-21.4-2.7-42.9-5.3-64.4-7.5-10.8-1.2-21.8-1.5-32.8-2.1-1.9-10.6-4.5-21.1-5.6-31.8a237.8,237.8,0,0,1,7-86,51.7,51.7,0,0,1,1.8-5.1c38.8-9.8,77.5-20.5,116.6-29,29.8-6.5,60.2-10.8,90.5-14.9,18.4-2.5,37.1-3,55.7-4.3a48.7,48.7,0,0,1,5.4.2c-13.3,15.1-26.6,30.1-40.2,45.7l-11.6-9.7c-11.5-9.4-24-16.3-39.4-17.3-21.8-1.4-39.3,6.8-53,23.2-12.2,14.4-18.1,31.6-20.5,50.1-3.2,24.6-1.6,48.8,7.5,72.1C954.7,346.7,959.4,353.3,963.3,360.2Z" transform="translate(1254.1 -97.3)"/><path class="cls-1" d="M1908.5,355.2c17.9-4.3,35.7-9,53.7-12.8a761.1,761.1,0,0,1,100.9-14.3l11.4-1.1c0,32.3.1,64.6.1,96.9.1,15.8,0,31.6,0,48l-5.5.3h-98.4c-2.8,0-4.8-.2-6.4-3.3q-27.3-55.8-55-111.4A22.5,22.5,0,0,1,1908.5,355.2Z" transform="translate(1254.1 -97.3)"/><path class="cls-1" d="M2074.4,325.6l-35.9-41.5c-19.2-22.1-40.6-41.7-64.9-58.1a24.3,24.3,0,0,0-4-1.8V103.6h104.6a29.8,29.8,0,0,1,.4,4.2V322.1C2074.6,323.2,2074.5,324.4,2074.4,325.6Z" transform="translate(1254.1 -97.3)"/><path class="cls-1" d="M1672.5,184.4c-30.1,7-60.2,13.8-90.2,20.9-31.8,7.5-63.5,15.4-95.3,23.1l-2.3.8q12.1-40.5,24.5-81c4.1-13.6,8.4-27.2,12.4-40.9.8-2.9,1.9-4.1,5-4.1H1644c3.9,0,4.6,2.2,5.5,5Q1660.9,146.3,1672.5,184.4Z" transform="translate(1254.1 -97.3)"/><path class="cls-1" d="M1772.6,395.2l99.5-30,5.3-1.3.3,89.9v18.1H1772.6Z" transform="translate(1254.1 -97.3)"/><path class="cls-1" d="M1804.6,173h-32.1V103.6l5.1-.3H1876c3.1,0,5.1.7,6.6,3.8,14.5,29.3,29.2,58.6,43.8,87.9a20.4,20.4,0,0,1,1.3,4.2c0,.4-.1.8-.1,1.2l-21-8.2c-1.4-5.3-8.1-7.5-12-4l-4.1-1.4c-.7-1.1-1.3-2.2-2-3.2-.7.6-1.3,1.3-2,2l-7.9-2.1c-.5-2.5-1.6-2.8-3.1-.8l-19.9-4.2c-1.1-4.1-2.8-4.2-5.1-.9h-.9c-1-3.1-2.5-2.7-4.2-.7l-2.8-.4c-1.2-4.1-2.9-4.1-5.1-.7l-2.9-.3c-1.3-4.2-3-4-5.2-.6l-4.8-.5-3-2.9-2,2.7-8-.8-4-3.7Z" transform="translate(1254.1 -97.3)"/><path class="cls-1" d="M1153.7,432.2l46.6,17.6c31.1,11.7,61.5,8.1,91.7-4.1,24.8-10.1,47-24.8,69.9-38.3l40.6-24.4v88.8H1153.7Z" transform="translate(1254.1 -97.3)"/><path class="cls-1" d="M1634.8,434.2c8.5-2.1,17-4,25.4-6.4l79.3-22.7,17.1,55.1,3.5,12H1649c-4,0-5.7-.9-6.6-5.2C1640.3,456,1637.4,445.1,1634.8,434.2Z" transform="translate(1254.1 -97.3)"/><path class="cls-6" d="M1130.9,421.6c-31.3-15.5-62.7-30.5-95.9-41.5a9.1,9.1,0,0,1-2.3-1.7c13.1-4.1,20.4-9.3,39.7-28.6,20.5,22.6,41,45.2,61.8,68.3Z" transform="translate(1254.1 -97.3)"/><path class="cls-1" d="M1927.6,200.3c0-.4.1-.8.1-1.2a5.7,5.7,0,0,1,.8,1.3h-.9Z" transform="translate(1254.1 -97.3)"/><path class="cls-1" d="M1929.5,201.3l-1-1Z" transform="translate(1254.1 -97.3)"/><path class="cls-3" d="M803.6,344.2c-29.4-.3-58.8-.7-88.2-.9-8.6,0-17.2.5-25.8.7-.6,0-1.1-.5-1.7-.8a132.5,132.5,0,0,0,8.9-52.9c-.4-10.6-.6-21.2-.8-31.8,21.2-4.5,42.5-8.9,63.7-13.7,15.1-3.5,30-7.6,44.9-11.5,1.2,8.5,2.5,17,3.7,25.5,0,.3.2.6.2.9-.1,18.2.2,36.4-.6,54.5C807.4,324.3,805.1,334.2,803.6,344.2Z" transform="translate(1254.1 -97.3)"/><path class="cls-1" d="M-142.7,269.2a1,1,0,0,1,.5.8Z" transform="translate(1254.1 -97.3)"/><path class="cls-1" d="M1894.6,188.1c3.9-3.5,10.6-1.3,12,4Z" transform="translate(1254.1 -97.3)"/><path class="cls-1" d="M1804.6,173l3-3.5,4,3.7Z" transform="translate(1254.1 -97.3)"/><path class="cls-1" d="M1819.6,174l2-2.7,3,2.9Z" transform="translate(1254.1 -97.3)"/><path class="cls-1" d="M1850.5,177.5c2.3-3.3,4-3.2,5.1.9Z" transform="translate(1254.1 -97.3)"/><path class="cls-1" d="M1837.5,175.6c2.2-3.4,3.9-3.4,5.1.7Z" transform="translate(1254.1 -97.3)"/><path class="cls-1" d="M1829.4,174.7c2.2-3.4,3.9-3.6,5.2.6Z" transform="translate(1254.1 -97.3)"/><path class="cls-1" d="M1886.5,185.5c.7-.7,1.3-1.4,2-2,.7,1,1.3,2.1,2,3.2Z" transform="translate(1254.1 -97.3)"/><path class="cls-1" d="M1845.4,176.7c1.7-2,3.2-2.4,4.2.7Z" transform="translate(1254.1 -97.3)"/><path class="cls-1" d="M1875.5,182.6c1.5-2,2.6-1.7,3.1.8Z" transform="translate(1254.1 -97.3)"/></svg>